<svg xmlns="http://www.w3.org/2000/svg" viewBox="0 0 333.56 301.26"><defs><style>.a17d4e5b-d105-4fb1-8675-8cfc80b9fc07{isolation:isolate;}.\30 4b670e8-a0c0-4d7a-ada2-22a6ea39d405{fill:none;}.e99f134a-34a9-4814-8ecd-4353ecc21c2d{fill:#820333;}.\31 f7f0553-3720-4bcb-9997-4e1a1c29e959,.\38 97d6373-1308-4013-99b2-246634b5cb51,.e99f134a-34a9-4814-8ecd-4353ecc21c2d{mix-blend-mode:soft-light;}.\38 97d6373-1308-4013-99b2-246634b5cb51{fill:#f0433a;}.\31 f7f0553-3720-4bcb-9997-4e1a1c29e959{fill:#c9283e;}</style></defs><title>Asset 1</title><g class="a17d4e5b-d105-4fb1-8675-8cfc80b9fc07"><g id="96483d32-1056-4c83-a7d6-7c50577302e2" data-name="Layer 2"><g id="a293863d-2083-4fea-a3ab-73e75d9b60ff" data-name="Layer 1"><path class="04b670e8-a0c0-4d7a-ada2-22a6ea39d405" d="M243.93,134.81q13.13-13,13.13-36.39a50,50,0,0,0-3.4-18.81A38.05,38.05,0,0,0,243.36,65a41.7,41.7,0,0,0-7.07-5V140.5A35.68,35.68,0,0,0,243.93,134.81Z"/><polygon class="04b670e8-a0c0-4d7a-ada2-22a6ea39d405" points="88.91 247.5 165.99 247.5 165.99 200.56 165.13 200.56 165.13 147.84 165.99 147.84 165.99 137.4 88.91 247.5"/><path class="e99f134a-34a9-4814-8ecd-4353ecc21c2d" d="M166,266.11V247.5H88.91L166,137.4V52.31h-.86V32a35.14,35.14,0,0,1,34-32H38.46a26.88,26.88,0,0,0,0,53.76H148.05L6.21,256.39A33,33,0,0,0,1.66,265,27.74,27.74,0,0,0,0,274.38a26.89,26.89,0,0,0,26.88,26.88H201.14A35.15,35.15,0,0,1,166,266.11Z"/><path class="e99f134a-34a9-4814-8ecd-4353ecc21c2d" d="M201.14,301.26h4.39a26.82,26.82,0,0,0,23.32-13.52A35.08,35.08,0,0,1,201.14,301.26Z"/><path class="e99f134a-34a9-4814-8ecd-4353ecc21c2d" d="M214.77.32l1.4.08-.4-.08a25.52,25.52,0,0,0-4-.32h-10Q208.45,0,214.77.32Z"/><path class="e99f134a-34a9-4814-8ecd-4353ecc21c2d" d="M201.14,0h0Z"/><path class="897d6373-1308-4013-99b2-246634b5cb51" d="M325.86,59.55A81.38,81.38,0,0,0,302,28.33Q285.79,15.1,260.79,7.55,241.44,1.72,216.17.4A25.25,25.25,0,0,1,237,25.23a32.14,32.14,0,0,1-.78,7.05c.07.94.11,1.9.11,2.87V60.06a41.7,41.7,0,0,1,7.07,5,38.05,38.05,0,0,1,10.3,14.58,50,50,0,0,1,3.4,18.81q0,23.37-13.13,36.39a35.68,35.68,0,0,1-7.64,5.69v57.69A163.45,163.45,0,0,0,260.11,193q25-7.54,41.31-21a83.18,83.18,0,0,0,24.21-32.26,105.49,105.49,0,0,0,7.93-41.35A97.78,97.78,0,0,0,325.86,59.55Z"/><rect class="897d6373-1308-4013-99b2-246634b5cb51" x="165.13" y="147.84" width="0.86" height="52.72"/><path class="e99f134a-34a9-4814-8ecd-4353ecc21c2d" d="M199.1,0a35.14,35.14,0,0,0-34,32v20.3H166V35.15c0-1.06,0-2.11.14-3.14a35.14,35.14,0,0,1,34-32h-1Z"/><path class="897d6373-1308-4013-99b2-246634b5cb51" d="M199.1,0a35.14,35.14,0,0,0-34,32v20.3H166V35.15c0-1.06,0-2.11.14-3.14a35.14,35.14,0,0,1,34-32h-1Z"/><path class="e99f134a-34a9-4814-8ecd-4353ecc21c2d" d="M201.77,0a35.16,35.16,0,0,1,34.41,32.27,32.14,32.14,0,0,0,.78-7A25.25,25.25,0,0,0,216.17.4l-1.4-.08Q208.46,0,201.77,0Z"/><path class="897d6373-1308-4013-99b2-246634b5cb51" d="M201.77,0a35.16,35.16,0,0,1,34.41,32.27,32.14,32.14,0,0,0,.78-7A25.25,25.25,0,0,0,216.17.4l-1.4-.08Q208.46,0,201.77,0Z"/><path class="1f7f0553-3720-4bcb-9997-4e1a1c29e959" d="M225.94,55.62c-.73-.23-1.49-.43-2.25-.63L166,137.4v10.44h34.94q21.54,0,34.36-6.77c.34-.18.66-.38,1-.57V60.06c-.33-.19-.66-.39-1-.57A55.55,55.55,0,0,0,225.94,55.62Z"/><path class="1f7f0553-3720-4bcb-9997-4e1a1c29e959" d="M200.93,200.56H166V247.5h39.54a26.87,26.87,0,0,1,23.32,40.24,35,35,0,0,0,7.44-21.63V198.19l-1,.15A248,248,0,0,1,200.93,200.56Z"/><path class="e99f134a-34a9-4814-8ecd-4353ecc21c2d" d="M201.77,0h0Z"/><path class="1f7f0553-3720-4bcb-9997-4e1a1c29e959" d="M201.77,0h0Z"/><path class="e99f134a-34a9-4814-8ecd-4353ecc21c2d" d="M205.53,247.5H166v18.61a35.15,35.15,0,0,0,62.86,21.63,26.87,26.87,0,0,0-23.32-40.24Z"/><path class="1f7f0553-3720-4bcb-9997-4e1a1c29e959" d="M205.53,247.5H166v18.61a35.15,35.15,0,0,0,62.86,21.63,26.87,26.87,0,0,0-23.32-40.24Z"/><path class="e99f134a-34a9-4814-8ecd-4353ecc21c2d" d="M222.86,54.75a89,89,0,0,0-21.93-2.44H166V137.4L223.69,55C223.41,54.91,223.14,54.82,222.86,54.75Z"/><path class="1f7f0553-3720-4bcb-9997-4e1a1c29e959" d="M222.86,54.75a89,89,0,0,0-21.93-2.44H166V137.4L223.69,55C223.41,54.91,223.14,54.82,222.86,54.75Z"/><path class="897d6373-1308-4013-99b2-246634b5cb51" d="M230.34,45.49l-6.48,9.26-.17.24c.76.2,1.52.4,2.25.63a55.55,55.55,0,0,1,9.35,3.87c.34.18.67.38,1,.57V35.15c0-1,0-1.93-.11-2.87a34.28,34.28,0,0,1-1,3.49A40.2,40.2,0,0,1,230.34,45.49Z"/><path class="1f7f0553-3720-4bcb-9997-4e1a1c29e959" d="M230.34,45.49l-6.48,9.26-.17.24c.76.2,1.52.4,2.25.63a55.55,55.55,0,0,1,9.35,3.87c.34.18.67.38,1,.57V35.15c0-1,0-1.93-.11-2.87a34.28,34.28,0,0,1-1,3.49A40.2,40.2,0,0,1,230.34,45.49Z"/><path class="897d6373-1308-4013-99b2-246634b5cb51" d="M235.29,141.07q-12.82,6.78-34.36,6.77H166v52.72h34.94a248,248,0,0,0,34.36-2.22l1-.15V140.5C236,140.69,235.63,140.89,235.29,141.07Z"/><path class="1f7f0553-3720-4bcb-9997-4e1a1c29e959" d="M235.29,141.07q-12.82,6.78-34.36,6.77H166v52.72h34.94a248,248,0,0,0,34.36-2.22l1-.15V140.5C236,140.69,235.63,140.89,235.29,141.07Z"/><path class="e99f134a-34a9-4814-8ecd-4353ecc21c2d" d="M201.77,0H200.1a35.14,35.14,0,0,0-34,32c-.09,1-.14,2.08-.14,3.14V52.31h34.94a89,89,0,0,1,21.93,2.44c.28.07.55.16.83.24l.17-.24,6.48-9.26a40.2,40.2,0,0,0,4.86-9.72,34.28,34.28,0,0,0,1-3.49A35.16,35.16,0,0,0,201.77,0Z"/><path class="897d6373-1308-4013-99b2-246634b5cb51" d="M201.77,0H200.1a35.14,35.14,0,0,0-34,32c-.09,1-.14,2.08-.14,3.14V52.31h34.94a89,89,0,0,1,21.93,2.44c.28.07.55.16.83.24l.17-.24,6.48-9.26a40.2,40.2,0,0,0,4.86-9.72,34.28,34.28,0,0,0,1-3.49A35.16,35.16,0,0,0,201.77,0Z"/><path class="1f7f0553-3720-4bcb-9997-4e1a1c29e959" d="M201.77,0H200.1a35.14,35.14,0,0,0-34,32c-.09,1-.14,2.08-.14,3.14V52.31h34.94a89,89,0,0,1,21.93,2.44c.28.07.55.16.83.24l.17-.24,6.48-9.26a40.2,40.2,0,0,0,4.86-9.72,34.28,34.28,0,0,0,1-3.49A35.16,35.16,0,0,0,201.77,0Z"/></g></g></g></svg>