<svg xmlns="http://www.w3.org/2000/svg" viewBox="0 0 1357.62 297.12"><defs><style>.\33 25954eb-35af-4e72-9fd4-6b008a1cdce9{fill:#fff;stroke:#8d032a;stroke-miterlimit:10;}</style></defs><title>Asset 1</title><g id="e8e46277-a69f-4ba8-b8c1-02ca5e5ad523" data-name="Layer 2"><g id="76fdada7-02bb-4aac-9ba2-9db96bb596f8" data-name="Layer 2"><path class="325954eb-35af-4e72-9fd4-6b008a1cdce9" d="M1348,33a3.06,3.06,0,0,1-.86-.72,1.62,1.62,0,0,1-.29-1,2.6,2.6,0,0,1,.66-1.51,23.57,23.57,0,0,0,1.42-2.17,18.31,18.31,0,0,0,1.43-3.15A13.72,13.72,0,0,0,1351,20a13.09,13.09,0,0,0-.67-4.38,9.42,9.42,0,0,0-1.81-3.18,7.44,7.44,0,0,0-2.68-1.92,8.38,8.38,0,0,0-3.33-.65,6.18,6.18,0,0,0-3.8,1.12,9.57,9.57,0,0,0-2.56,3,22.8,22.8,0,0,0-1.86,4.19c-.52,1.57-1,3.16-1.61,4.8s-1.19,3.24-1.89,4.8a16.75,16.75,0,0,1-2.64,4.18,11.94,11.94,0,0,1-3.92,3A13.08,13.08,0,0,1,1318.5,36a18.42,18.42,0,0,1-6.71-1.21,15.6,15.6,0,0,1-5.47-3.56,17,17,0,0,1-3.66-5.75,21.3,21.3,0,0,1-1.33-7.75,23.53,23.53,0,0,1,1.93-9.65,22.55,22.55,0,0,1,5.2-7.45l3.5,2.14a2.91,2.91,0,0,1,.7.74,1.73,1.73,0,0,1,.29,1,3,3,0,0,1-.86,1.83,30.46,30.46,0,0,0-1.89,2.57,19.92,19.92,0,0,0-1.88,3.73,14.74,14.74,0,0,0-.86,5.35,14.1,14.1,0,0,0,.73,4.68,9.64,9.64,0,0,0,2,3.49,8.86,8.86,0,0,0,3.13,2.19,10.67,10.67,0,0,0,4.08.76,6.87,6.87,0,0,0,4-1.12,9.23,9.23,0,0,0,2.65-2.95,20.32,20.32,0,0,0,1.81-4.18c.5-1.56,1-3.16,1.52-4.79a49.33,49.33,0,0,1,1.81-4.8A15.56,15.56,0,0,1,1332,7.06,12.18,12.18,0,0,1,1336,4.11a15.61,15.61,0,0,1,11.67,0,14.42,14.42,0,0,1,4.8,3.25,16,16,0,0,1,3.35,5.28,19.23,19.23,0,0,1,1.26,7.22,23.16,23.16,0,0,1-1.45,8.33,19.07,19.07,0,0,1-4.19,6.59Z"/><path class="325954eb-35af-4e72-9fd4-6b008a1cdce9" d="M1356.51,82.56h-6.21V64.93h-48.36V57.55h48.36V39.84h6.21Z"/><path class="325954eb-35af-4e72-9fd4-6b008a1cdce9" d="M1329.21,137.29a31.43,31.43,0,0,1-11.26-1.95,25.85,25.85,0,0,1-8.81-5.48,24.58,24.58,0,0,1-5.73-8.51,30.57,30.57,0,0,1,0-22,24.69,24.69,0,0,1,5.73-8.49,25.7,25.7,0,0,1,8.81-5.48,33.62,33.62,0,0,1,22.51,0,25.88,25.88,0,0,1,8.83,5.48,24.65,24.65,0,0,1,5.77,8.49,30.29,30.29,0,0,1,0,22,24.54,24.54,0,0,1-5.77,8.51,26,26,0,0,1-8.83,5.48A31.42,31.42,0,0,1,1329.21,137.29Zm0-7.58a27.6,27.6,0,0,0,9-1.38,19.07,19.07,0,0,0,6.76-3.88,16.76,16.76,0,0,0,4.24-6.09,22.09,22.09,0,0,0,0-16,17,17,0,0,0-4.24-6.12,19,19,0,0,0-6.76-3.9,30.35,30.35,0,0,0-18,0,19,19,0,0,0-6.74,3.9,16.9,16.9,0,0,0-4.23,6.12,22.37,22.37,0,0,0,0,16,16.61,16.61,0,0,0,4.23,6.09,19.06,19.06,0,0,0,6.74,3.88A27.37,27.37,0,0,0,1329.21,129.71Z"/><path class="325954eb-35af-4e72-9fd4-6b008a1cdce9" d="M1324.71,155.48h-22.77v-7.35h54.57v15.42a33.62,33.62,0,0,1-1,8.95,17,17,0,0,1-3,6.22,12.15,12.15,0,0,1-4.77,3.64,16,16,0,0,1-6.27,1.18,15.72,15.72,0,0,1-5.41-.91,14.42,14.42,0,0,1-4.51-2.65,16,16,0,0,1-3.41-4.22,20.91,20.91,0,0,1-2.13-5.66,7.86,7.86,0,0,1-2.32,2.44l-21.67,15.91v-6.54a3.25,3.25,0,0,1,1.56-3l19.5-14.16a4.11,4.11,0,0,0,1.31-1.41,5,5,0,0,0,.4-2.28Zm5.37,0v7.73a18.82,18.82,0,0,0,.78,5.69,11.54,11.54,0,0,0,2.21,4.11,9.12,9.12,0,0,0,3.41,2.5,11.1,11.1,0,0,0,4.38.83q4.88,0,7.35-3.21t2.47-9.58v-8.07Z"/><path class="325954eb-35af-4e72-9fd4-6b008a1cdce9" d="M1356.51,230h-6v-26.2h-18.12v21.21h-5.79V203.84H1308V230h-6V196.42h54.57Z"/><path class="325954eb-35af-4e72-9fd4-6b008a1cdce9" d="M162.4,169a10.31,10.31,0,0,1,3.66.69,9.8,9.8,0,0,1,3.5,2.36L190,193.55A84.72,84.72,0,0,1,156.38,220q-20.17,8.91-47.74,8.91-25.29,0-45.31-8.61a97.82,97.82,0,0,1-34-23.76A104.51,104.51,0,0,1,8,160.58,132.65,132.65,0,0,1,.5,115.42Q.5,90.6,9,69.8A106.32,106.32,0,0,1,32.87,33.93,107.43,107.43,0,0,1,69.49,10.48Q90.82,2.09,116.56,2.1a120.14,120.14,0,0,1,23.53,2.21,114.55,114.55,0,0,1,20.63,6.09,97.29,97.29,0,0,1,17.67,9.29,85.21,85.21,0,0,1,14.32,12L175.35,55a22.13,22.13,0,0,1-4,3.89,10.38,10.38,0,0,1-6.4,1.75,11.44,11.44,0,0,1-5.18-1.22,57.1,57.1,0,0,1-5.18-3c-1.82-1.17-3.83-2.44-6-3.81a46.9,46.9,0,0,0-7.77-3.81,65.94,65.94,0,0,0-10.51-3,72,72,0,0,0-14.09-1.21,64.62,64.62,0,0,0-25.59,4.94A56.28,56.28,0,0,0,70.79,63.71,65.72,65.72,0,0,0,57.84,86a87.54,87.54,0,0,0-4.64,29.4q0,17.06,4.64,30.31A66.53,66.53,0,0,0,70.48,168a53.54,53.54,0,0,0,18.66,13.78A55.75,55.75,0,0,0,112,186.55a108.59,108.59,0,0,0,12.79-.69,52.8,52.8,0,0,0,10.74-2.36,49.77,49.77,0,0,0,9.44-4.34,61.87,61.87,0,0,0,9.06-6.62,17.94,17.94,0,0,1,4-2.52A10.39,10.39,0,0,1,162.4,169Z"/><path class="325954eb-35af-4e72-9fd4-6b008a1cdce9" d="M372.74,226.45H332.83a18.48,18.48,0,0,1-11-3.12,16.07,16.07,0,0,1-6-8l-13.1-38.69H218.3l-13.1,38.69a17.63,17.63,0,0,1-16.75,11.11H148.24L234.14,4.54h52.7ZM230.18,141.61H290.8L270.39,80.84q-2-5.78-4.65-13.63t-5.25-17q-2.44,9.29-5,17.21t-4.87,13.71Z"/><path class="325954eb-35af-4e72-9fd4-6b008a1cdce9" d="M395,185.33h82.24v41.12H343.49V4.54H395Z"/><path class="325954eb-35af-4e72-9fd4-6b008a1cdce9" d="M661.21,115.42a119.36,119.36,0,0,1-8.3,44.78,105.85,105.85,0,0,1-59.7,60q-21.26,8.67-47.15,8.68t-47.21-8.68a105.9,105.9,0,0,1-59.93-60,119.17,119.17,0,0,1-8.31-44.78,119.17,119.17,0,0,1,8.31-44.78,106.56,106.56,0,0,1,23.45-35.95,108.47,108.47,0,0,1,36.48-23.91Q520.17,2.1,546.06,2.1t47.15,8.76a108.76,108.76,0,0,1,36.32,24,107.25,107.25,0,0,1,23.38,35.94A119,119,0,0,1,661.21,115.42Zm-52.7,0a96.09,96.09,0,0,0-4.27-29.63A62.83,62.83,0,0,0,592,63.48a53.07,53.07,0,0,0-19.58-14,67.36,67.36,0,0,0-26.35-4.87,68.36,68.36,0,0,0-26.58,4.87,52.8,52.8,0,0,0-19.64,14,62.7,62.7,0,0,0-12.26,22.31,95.79,95.79,0,0,0-4.27,29.63,96.32,96.32,0,0,0,4.27,29.78,62.7,62.7,0,0,0,12.26,22.31,52.08,52.08,0,0,0,19.64,13.94,69.49,69.49,0,0,0,26.58,4.79,68.47,68.47,0,0,0,26.35-4.79A52.34,52.34,0,0,0,592,167.51a62.83,62.83,0,0,0,12.25-22.31A96.62,96.62,0,0,0,608.51,115.42Z"/><path class="325954eb-35af-4e72-9fd4-6b008a1cdce9" d="M731,185.79a47.46,47.46,0,0,0,18.51-3.43,37.45,37.45,0,0,0,13.78-9.82,43.28,43.28,0,0,0,8.6-15.61,67.94,67.94,0,0,0,3-21V4.54h51.48V136a102.58,102.58,0,0,1-6.63,37.47,84.11,84.11,0,0,1-19,29.39,85.77,85.77,0,0,1-30,19.2q-17.67,6.84-39.76,6.85T691.06,222a85.72,85.72,0,0,1-30-19.2,83.22,83.22,0,0,1-18.88-29.39A103.62,103.62,0,0,1,635.62,136V4.54H687.1V135.83a68.14,68.14,0,0,0,3,20.94,44.09,44.09,0,0,0,8.61,15.69,36.88,36.88,0,0,0,13.78,9.9A47.41,47.41,0,0,0,731,185.79Z"/><path class="325954eb-35af-4e72-9fd4-6b008a1cdce9" d="M955.46,4.54v39.6H864.38V95.92h69.76V134H864.38v52.85h91.08v39.6H812.6V4.54Z"/><path class="325954eb-35af-4e72-9fd4-6b008a1cdce9" d="M989,144.36v82.09H937.49V4.54h72.19q24.06,0,41,5t27.73,13.78a52.28,52.28,0,0,1,15.61,20.87,69.08,69.08,0,0,1,4.87,26.19A70.73,70.73,0,0,1,1096,90.75a61.81,61.81,0,0,1-8.61,17.74,66.65,66.65,0,0,1-14,14.54,74.26,74.26,0,0,1-19.11,10.51,48.69,48.69,0,0,1,9.67,6.4,38.43,38.43,0,0,1,7.84,9.29L1119,226.45h-46.61q-12.95,0-18.58-9.75L1017,152.28a15.53,15.53,0,0,0-5.71-6.09c-2.19-1.22-5.25-1.83-9.22-1.83Zm0-35.49h20.71a53,53,0,0,0,17.9-2.67,32.48,32.48,0,0,0,12.11-7.38,28.19,28.19,0,0,0,6.85-11,42.37,42.37,0,0,0,2.13-13.63q0-14.61-9.52-22.84t-29.47-8.23H989Z"/><path class="325954eb-35af-4e72-9fd4-6b008a1cdce9" d="M1299.36,226.45h-39.9a18.43,18.43,0,0,1-11-3.12,16.15,16.15,0,0,1-6-8l-13.09-38.69h-84.38l-13.11,38.69a17.6,17.6,0,0,1-16.74,11.11h-40.22L1160.77,4.54h52.7ZM1156.8,141.61h60.62L1197,80.84q-2-5.78-4.64-13.63t-5.25-17q-2.44,9.29-5,17.21t-4.87,13.71Z"/><path class="325954eb-35af-4e72-9fd4-6b008a1cdce9" d="M881.25,296h-3a1.28,1.28,0,0,1-.87-.28,2,2,0,0,1-.54-.74l-6.35-15.66H844L837.69,295a1.67,1.67,0,0,1-.53.72,1.43,1.43,0,0,1-.92.3h-3l22-53.88h3.88ZM845.19,276.4h24.14l-11-27.22c-.18-.43-.36-.92-.53-1.47s-.36-1.12-.54-1.73c-.18.61-.36,1.19-.54,1.73s-.34,1-.52,1.51Z"/><path class="325954eb-35af-4e72-9fd4-6b008a1cdce9" d="M897.47,292.66H923V296H893.58V242.09h3.89Z"/><path class="325954eb-35af-4e72-9fd4-6b008a1cdce9" d="M940.23,292.66h25.55V296H936.34V242.09h3.89Z"/><path class="325954eb-35af-4e72-9fd4-6b008a1cdce9" d="M1017.53,293.19a16.89,16.89,0,0,0,6.94-1.35,14.81,14.81,0,0,0,5.2-3.75,16.55,16.55,0,0,0,3.26-5.65,21.67,21.67,0,0,0,1.12-7V242.09h3.88v33.32a24.26,24.26,0,0,1-1.4,8.32,20,20,0,0,1-4.06,6.74A18.67,18.67,0,0,1,1026,295a22.9,22.9,0,0,1-17,0,18.63,18.63,0,0,1-6.43-4.51,19.82,19.82,0,0,1-4.06-6.74,24.26,24.26,0,0,1-1.41-8.32V242.09H1001v33.28a21.37,21.37,0,0,0,1.12,7,16.51,16.51,0,0,0,3.24,5.65,14.78,14.78,0,0,0,5.17,3.77A16.82,16.82,0,0,0,1017.53,293.19Z"/><path class="325954eb-35af-4e72-9fd4-6b008a1cdce9" d="M1078.52,242.23a2,2,0,0,1,.65.58l34.88,46.69a21,21,0,0,1-.11-2.2V242.09h3.42V296h-1.86a1.64,1.64,0,0,1-1.41-.75l-35-46.77c.07.77.11,1.49.11,2.17V296h-3.39V242.09h1.9A2.09,2.09,0,0,1,1078.52,242.23Z"/><path class="325954eb-35af-4e72-9fd4-6b008a1cdce9" d="M1169.45,242.09v3.24h-28.37v21.78h23.61v3.16h-23.61v22.47h28.37V296h-32.29V242.09Z"/><path class="325954eb-35af-4e72-9fd4-6b008a1cdce9" d="M1218.26,242.09v3.24H1189.9v21.78h23.6v3.16h-23.6v22.47h28.36V296H1186V242.09Z"/><path class="325954eb-35af-4e72-9fd4-6b008a1cdce9" d="M1280.14,269a31.89,31.89,0,0,1-1.87,11.22,24.15,24.15,0,0,1-5.26,8.5,22.74,22.74,0,0,1-8.1,5.37,28.41,28.41,0,0,1-10.48,1.86h-19.64V242.09h19.64a28.41,28.41,0,0,1,10.48,1.87,22.61,22.61,0,0,1,8.1,5.37,24.19,24.19,0,0,1,5.26,8.49A31.89,31.89,0,0,1,1280.14,269Zm-4,0a30.14,30.14,0,0,0-1.56-10.06,21.14,21.14,0,0,0-4.4-7.46,18.78,18.78,0,0,0-6.83-4.65,23.87,23.87,0,0,0-8.88-1.6h-15.72v47.56h15.72a23.67,23.67,0,0,0,8.88-1.6,18.63,18.63,0,0,0,6.83-4.64,21.14,21.14,0,0,0,4.4-7.46A30.24,30.24,0,0,0,1276.1,269Z"/><path class="325954eb-35af-4e72-9fd4-6b008a1cdce9" d="M1297.23,293a3.56,3.56,0,0,1,.27-1.37,3.49,3.49,0,0,1,.75-1.13,3.7,3.7,0,0,1,1.1-.75,3.15,3.15,0,0,1,1.39-.29,3.24,3.24,0,0,1,1.37.29,3.51,3.51,0,0,1,1.88,1.88,3.4,3.4,0,0,1,.29,1.37,3.32,3.32,0,0,1-.29,1.39,3.71,3.71,0,0,1-.76,1.11,3.47,3.47,0,0,1-1.12.74,3.56,3.56,0,0,1-1.37.27,3.47,3.47,0,0,1-3.51-3.51Zm5.41-51v21.79c0,1.13,0,2.22,0,3.23s-.06,2.05-.09,3.1-.1,2.17-.17,3.33-.16,2.47-.23,3.89h-2.48c-.08-1.42-.15-2.72-.22-3.89s-.14-2.27-.18-3.33-.07-2.08-.09-3.1,0-2.1,0-3.23V242.09Z"/></g></g></svg>