<svg xmlns="http://www.w3.org/2000/svg" xmlns:xlink="http://www.w3.org/1999/xlink" viewBox="0 0 800 223.08"><defs><style>.\33 f9290c1-719d-461b-aabb-04526637e139{fill:none;}.d91905d4-ca90-4dd9-a186-20e8bb40ecc3{isolation:isolate;}.f6c1e8f2-7ef1-497d-a9d2-7b006c5535f1{clip-path:url(#71d41bf0-35cc-44b8-b839-dda49afc935d);}.\37 8bd5dcd-3d21-48b0-b653-276afd2b8b54{mix-blend-mode:soft-light;}.fc586ae3-5bec-4f8d-b6a8-cb99286a5310{fill:#f0433a;}.\33 a6495bf-3158-4a9e-9084-701f6d9e87fb{fill:#820333;}.ace32d43-d80d-4606-b748-c1fd33c1fff5{fill:#c9283e;}.\35 78e16ac-565c-4e64-9ab5-a633436380c8{font-size:50px;font-family:Lato-Hairline, Lato;letter-spacing:0.46em;}.\38 4f92ff8-cff4-4f79-98bc-4b2049c3ec68{letter-spacing:0.39em;}.\37 8a058e4-f80c-40a5-9643-4bc60209d553{letter-spacing:0.46em;}</style><clipPath id="71d41bf0-35cc-44b8-b839-dda49afc935d"><path class="3f9290c1-719d-461b-aabb-04526637e139" d="M158.65,142.16a5.2,5.2,0,0,1,1.8.33,5,5,0,0,1,1.73,1.17l10,10.57a41.71,41.71,0,0,1-16.54,13q-9.94,4.39-23.51,4.39a55.9,55.9,0,0,1-22.31-4.24,48.18,48.18,0,0,1-16.73-11.7A51.51,51.51,0,0,1,82.6,138a65.29,65.29,0,0,1-3.67-22.23,58.68,58.68,0,0,1,4.2-22.47A51.8,51.8,0,0,1,112.9,64.08,62.89,62.89,0,0,1,136.08,60,59.49,59.49,0,0,1,147.67,61a57.56,57.56,0,0,1,10.16,3,47.83,47.83,0,0,1,8.7,4.58,41.71,41.71,0,0,1,7.05,5.89L165,86a10.71,10.71,0,0,1-1.95,1.91,5,5,0,0,1-3.15.87,5.63,5.63,0,0,1-2.55-.6,27.21,27.21,0,0,1-2.55-1.47l-3-1.87A22.79,22.79,0,0,0,148,82.94a32.36,32.36,0,0,0-5.17-1.46,35.37,35.37,0,0,0-6.94-.6,31.64,31.64,0,0,0-12.6,2.44,27.67,27.67,0,0,0-9.79,7,32.23,32.23,0,0,0-6.37,11,43,43,0,0,0-2.29,14.48,44.84,44.84,0,0,0,2.29,14.92,32.83,32.83,0,0,0,6.22,11,26.54,26.54,0,0,0,9.19,6.79,27.47,27.47,0,0,0,11.25,2.32,52.75,52.75,0,0,0,6.3-.34,25.77,25.77,0,0,0,5.29-1.16,24.44,24.44,0,0,0,4.65-2.14,30.9,30.9,0,0,0,4.46-3.26,9.07,9.07,0,0,1,1.95-1.24A5.15,5.15,0,0,1,158.65,142.16ZM263,170.43H243.33a9,9,0,0,1-5.44-1.54,7.92,7.92,0,0,1-3-3.93l-6.45-19.05H186.93L180.48,165a8.72,8.72,0,0,1-8.25,5.47h-19.8l42.3-109.27h26Zm-70.2-41.77h29.85l-10-29.93c-.65-1.9-1.42-4.14-2.29-6.71s-1.74-5.36-2.59-8.36q-1.2,4.57-2.47,8.47t-2.4,6.75Zm81.9,21.52h40.5v20.25H249.33V61.16h25.35Zm131.85-34.42a58.63,58.63,0,0,1-4.09,22A52.15,52.15,0,0,1,373,167.36a65.32,65.32,0,0,1-46.46,0,52.22,52.22,0,0,1-29.51-29.55,61.48,61.48,0,0,1,0-44.1A52.3,52.3,0,0,1,308.62,76a53.35,53.35,0,0,1,18-11.78A61.11,61.11,0,0,1,349.83,60,60.24,60.24,0,0,1,373,64.27a53.42,53.42,0,0,1,17.89,11.81,52.65,52.65,0,0,1,11.51,17.7A58.45,58.45,0,0,1,406.53,115.76Zm-25.95,0a47.24,47.24,0,0,0-2.1-14.59,30.79,30.79,0,0,0-6-11,26,26,0,0,0-9.64-6.9,33.14,33.14,0,0,0-13-2.4,33.69,33.69,0,0,0-13.09,2.4,26,26,0,0,0-9.67,6.9,30.79,30.79,0,0,0-6,11,47.24,47.24,0,0,0-2.1,14.59,47.52,47.52,0,0,0,2.1,14.66,30.88,30.88,0,0,0,6,11,25.64,25.64,0,0,0,9.67,6.86,34.25,34.25,0,0,0,13.09,2.36,33.7,33.7,0,0,0,13-2.36,25.69,25.69,0,0,0,9.64-6.86,30.88,30.88,0,0,0,6-11A47.52,47.52,0,0,0,380.58,115.76Zm61.05,34.65a23.41,23.41,0,0,0,9.11-1.69,18.55,18.55,0,0,0,6.79-4.84,21.26,21.26,0,0,0,4.23-7.69,33.37,33.37,0,0,0,1.47-10.31V61.16h25.35v64.72a50.44,50.44,0,0,1-3.27,18.45A41.32,41.32,0,0,1,476,158.81a42.16,42.16,0,0,1-14.78,9.45,58.74,58.74,0,0,1-39.22,0,42.16,42.16,0,0,1-14.78-9.45,41,41,0,0,1-9.3-14.48,51.07,51.07,0,0,1-3.22-18.45V61.16H420v64.65a33.43,33.43,0,0,0,1.46,10.31,21.67,21.67,0,0,0,4.24,7.72,18.26,18.26,0,0,0,6.78,4.88A23.46,23.46,0,0,0,441.63,150.41Zm111.3-89.25v19.5H508.08v25.5h34.35v18.75H508.08v26h44.85v19.5H482.58V61.16ZM570.17,130v40.42H544.82V61.16h35.55a73.25,73.25,0,0,1,20.22,2.43,38.11,38.11,0,0,1,13.65,6.79,25.73,25.73,0,0,1,7.68,10.28,34,34,0,0,1,2.4,12.9,34.63,34.63,0,0,1-1.42,10,30.2,30.2,0,0,1-4.24,8.73,32.49,32.49,0,0,1-6.9,7.17,36.53,36.53,0,0,1-9.41,5.17,23.67,23.67,0,0,1,4.76,3.15,18.65,18.65,0,0,1,3.86,4.58l23.25,38h-23q-6.37,0-9.15-4.8L584,133.91a7.6,7.6,0,0,0-2.81-3,9.41,9.41,0,0,0-4.54-.9Zm0-17.48h10.2a26.28,26.28,0,0,0,8.82-1.31,16,16,0,0,0,6-3.64,13.81,13.81,0,0,0,3.37-5.44,20.83,20.83,0,0,0,1.05-6.71q0-7.2-4.68-11.25t-14.52-4.05h-10.2Zm153.6,57.9H704.12a9,9,0,0,1-5.43-1.54,7.89,7.89,0,0,1-3-3.93l-6.45-19.05H647.72L641.27,165a8.69,8.69,0,0,1-8.25,5.47h-19.8l42.3-109.27h26Zm-70.2-41.77h29.85l-10-29.93q-1-2.85-2.28-6.71c-.88-2.58-1.74-5.36-2.59-8.36q-1.2,4.57-2.48,8.47t-2.4,6.75Z"/></clipPath></defs><title>Asset 1</title><g class="d91905d4-ca90-4dd9-a186-20e8bb40ecc3"><g id="f41dd73c-bb55-4ccd-ae14-afe31c49c760" data-name="Layer 2"><g id="90ff0805-086f-4f11-bdeb-1ae74dadd0af" data-name="logotipo"><g class="f6c1e8f2-7ef1-497d-a9d2-7b006c5535f1"><g class="78bd5dcd-3d21-48b0-b653-276afd2b8b54"><circle class="fc586ae3-5bec-4f8d-b6a8-cb99286a5310" cx="618.67" cy="72" r="72"/></g><g class="78bd5dcd-3d21-48b0-b653-276afd2b8b54"><circle class="3a6495bf-3158-4a9e-9084-701f6d9e87fb" cx="509.33" cy="72" r="72"/></g><g class="78bd5dcd-3d21-48b0-b653-276afd2b8b54"><circle class="ace32d43-d80d-4606-b748-c1fd33c1fff5" cx="400" cy="72" r="72"/></g><g class="78bd5dcd-3d21-48b0-b653-276afd2b8b54"><circle class="fc586ae3-5bec-4f8d-b6a8-cb99286a5310" cx="290.67" cy="72" r="72"/></g><g class="78bd5dcd-3d21-48b0-b653-276afd2b8b54"><circle class="3a6495bf-3158-4a9e-9084-701f6d9e87fb" cx="181.33" cy="72" r="72"/></g><g class="78bd5dcd-3d21-48b0-b653-276afd2b8b54"><circle class="3a6495bf-3158-4a9e-9084-701f6d9e87fb" cx="728" cy="72" r="72"/></g><g class="78bd5dcd-3d21-48b0-b653-276afd2b8b54"><circle class="ace32d43-d80d-4606-b748-c1fd33c1fff5" cx="72" cy="72" r="72"/></g><g class="78bd5dcd-3d21-48b0-b653-276afd2b8b54"><circle class="fc586ae3-5bec-4f8d-b6a8-cb99286a5310" cx="618.67" cy="144" r="72"/></g><g class="78bd5dcd-3d21-48b0-b653-276afd2b8b54"><circle class="3a6495bf-3158-4a9e-9084-701f6d9e87fb" cx="509.33" cy="144" r="72"/></g><g class="78bd5dcd-3d21-48b0-b653-276afd2b8b54"><circle class="ace32d43-d80d-4606-b748-c1fd33c1fff5" cx="400" cy="144" r="72"/></g><g class="78bd5dcd-3d21-48b0-b653-276afd2b8b54"><circle class="fc586ae3-5bec-4f8d-b6a8-cb99286a5310" cx="290.67" cy="144" r="72"/></g><g class="78bd5dcd-3d21-48b0-b653-276afd2b8b54"><circle class="3a6495bf-3158-4a9e-9084-701f6d9e87fb" cx="181.33" cy="144" r="72"/></g><g class="78bd5dcd-3d21-48b0-b653-276afd2b8b54"><circle class="3a6495bf-3158-4a9e-9084-701f6d9e87fb" cx="728" cy="144" r="72"/></g><g class="78bd5dcd-3d21-48b0-b653-276afd2b8b54"><circle class="ace32d43-d80d-4606-b748-c1fd33c1fff5" cx="72" cy="144" r="72"/></g></g><text class="578e16ac-565c-4e64-9ab5-a633436380c8" transform="translate(482.68 213.58)">S<tspan class="84f92ff8-cff4-4f79-98bc-4b2049c3ec68" x="48.8" y="0">T</tspan><tspan class="78a058e4-f80c-40a5-9643-4bc60209d553" x="97.3" y="0">ORE</tspan></text></g></g></g></svg>