<svg xmlns="http://www.w3.org/2000/svg" xmlns:xlink="http://www.w3.org/1999/xlink" viewBox="0 0 800 216"><defs><style>.\35 64f2ed1-0280-4e13-a8f7-4b88be454012{fill:none;}.\30 a17c987-738f-4d1d-a34c-079c9a1dc1a4{isolation:isolate;}.\30 819d67b-12d9-48f1-9d8f-b6b17023487f{clip-path:url(#9ba860d1-3874-4eb1-abdd-05d6b618a805);}.adcdbcf1-a591-464f-8181-1478fc77afc7{mix-blend-mode:soft-light;}.\30 5ed0830-7103-42c8-a1a4-f02e9b74cd63{fill:#f0433a;}.dc3038e0-2a96-4c7a-8d0d-d553f1d69974{fill:#820333;}.\30 af72b8b-9632-4341-9dab-ac65262aaf6c{fill:#c9283e;}</style><clipPath id="9ba860d1-3874-4eb1-abdd-05d6b618a805"><path class="564f2ed1-0280-4e13-a8f7-4b88be454012" d="M158.65,142.16a5.2,5.2,0,0,1,1.8.33,5,5,0,0,1,1.73,1.17l10,10.57a41.71,41.71,0,0,1-16.54,13q-9.94,4.39-23.51,4.39a55.9,55.9,0,0,1-22.31-4.24,48.18,48.18,0,0,1-16.73-11.7A51.51,51.51,0,0,1,82.6,138a65.29,65.29,0,0,1-3.67-22.23,58.68,58.68,0,0,1,4.2-22.47A51.8,51.8,0,0,1,112.9,64.08,62.89,62.89,0,0,1,136.08,60,59.49,59.49,0,0,1,147.67,61a57.56,57.56,0,0,1,10.16,3,47.83,47.83,0,0,1,8.7,4.58,41.71,41.71,0,0,1,7.05,5.89L165,86a10.71,10.71,0,0,1-1.95,1.91,5,5,0,0,1-3.15.87,5.63,5.63,0,0,1-2.55-.6,27.21,27.21,0,0,1-2.55-1.47l-3-1.87A22.79,22.79,0,0,0,148,82.94a32.36,32.36,0,0,0-5.17-1.46,35.37,35.37,0,0,0-6.94-.6,31.64,31.64,0,0,0-12.6,2.44,27.67,27.67,0,0,0-9.79,7,32.23,32.23,0,0,0-6.37,11,43,43,0,0,0-2.29,14.48,44.84,44.84,0,0,0,2.29,14.92,32.83,32.83,0,0,0,6.22,11,26.54,26.54,0,0,0,9.19,6.79,27.47,27.47,0,0,0,11.25,2.32,52.75,52.75,0,0,0,6.3-.34,25.77,25.77,0,0,0,5.29-1.16,24.44,24.44,0,0,0,4.65-2.14,30.9,30.9,0,0,0,4.46-3.26,9.07,9.07,0,0,1,1.95-1.24A5.15,5.15,0,0,1,158.65,142.16ZM263,170.43H243.33a9,9,0,0,1-5.44-1.54,7.92,7.92,0,0,1-3-3.93l-6.45-19.05H186.93L180.48,165a8.72,8.72,0,0,1-8.25,5.47h-19.8l42.3-109.27h26Zm-70.2-41.77h29.85l-10-29.93c-.65-1.9-1.42-4.14-2.29-6.71s-1.74-5.36-2.59-8.36q-1.2,4.57-2.47,8.47t-2.4,6.75Zm81.9,21.52h40.5v20.25H249.33V61.16h25.35Zm131.85-34.42a58.63,58.63,0,0,1-4.09,22A52.15,52.15,0,0,1,373,167.36a65.32,65.32,0,0,1-46.46,0,52.22,52.22,0,0,1-29.51-29.55,61.48,61.48,0,0,1,0-44.1A52.3,52.3,0,0,1,308.62,76a53.35,53.35,0,0,1,18-11.78A61.11,61.11,0,0,1,349.83,60,60.24,60.24,0,0,1,373,64.27a53.42,53.42,0,0,1,17.89,11.81,52.65,52.65,0,0,1,11.51,17.7A58.45,58.45,0,0,1,406.53,115.76Zm-25.95,0a47.24,47.24,0,0,0-2.1-14.59,30.79,30.79,0,0,0-6-11,26,26,0,0,0-9.64-6.9,33.14,33.14,0,0,0-13-2.4,33.69,33.69,0,0,0-13.09,2.4,26,26,0,0,0-9.67,6.9,30.79,30.79,0,0,0-6,11,47.24,47.24,0,0,0-2.1,14.59,47.52,47.52,0,0,0,2.1,14.66,30.88,30.88,0,0,0,6,11,25.64,25.64,0,0,0,9.67,6.86,34.25,34.25,0,0,0,13.09,2.36,33.7,33.7,0,0,0,13-2.36,25.69,25.69,0,0,0,9.64-6.86,30.88,30.88,0,0,0,6-11A47.52,47.52,0,0,0,380.58,115.76Zm61.05,34.65a23.41,23.41,0,0,0,9.11-1.69,18.55,18.55,0,0,0,6.79-4.84,21.26,21.26,0,0,0,4.23-7.69,33.37,33.37,0,0,0,1.47-10.31V61.16h25.35v64.72a50.44,50.44,0,0,1-3.27,18.45A41.32,41.32,0,0,1,476,158.81a42.16,42.16,0,0,1-14.78,9.45,58.74,58.74,0,0,1-39.22,0,42.16,42.16,0,0,1-14.78-9.45,41,41,0,0,1-9.3-14.48,51.07,51.07,0,0,1-3.22-18.45V61.16H420v64.65a33.43,33.43,0,0,0,1.46,10.31,21.67,21.67,0,0,0,4.24,7.72,18.26,18.26,0,0,0,6.78,4.88A23.46,23.46,0,0,0,441.63,150.41Zm111.3-89.25v19.5H508.08v25.5h34.35v18.75H508.08v26h44.85v19.5H482.58V61.16ZM570.17,130v40.42H544.82V61.16h35.55a73.25,73.25,0,0,1,20.22,2.43,38.11,38.11,0,0,1,13.65,6.79,25.73,25.73,0,0,1,7.68,10.28,34,34,0,0,1,2.4,12.9,34.63,34.63,0,0,1-1.42,10,30.2,30.2,0,0,1-4.24,8.73,32.49,32.49,0,0,1-6.9,7.17,36.53,36.53,0,0,1-9.41,5.17,23.67,23.67,0,0,1,4.76,3.15,18.65,18.65,0,0,1,3.86,4.58l23.25,38h-23q-6.37,0-9.15-4.8L584,133.91a7.6,7.6,0,0,0-2.81-3,9.41,9.41,0,0,0-4.54-.9Zm0-17.48h10.2a26.28,26.28,0,0,0,8.82-1.31,16,16,0,0,0,6-3.64,13.81,13.81,0,0,0,3.37-5.44,20.83,20.83,0,0,0,1.05-6.71q0-7.2-4.68-11.25t-14.52-4.05h-10.2Zm153.6,57.9H704.12a9,9,0,0,1-5.43-1.54,7.89,7.89,0,0,1-3-3.93l-6.45-19.05H647.72L641.27,165a8.69,8.69,0,0,1-8.25,5.47h-19.8l42.3-109.27h26Zm-70.2-41.77h29.85l-10-29.93q-1-2.85-2.28-6.71c-.88-2.58-1.74-5.36-2.59-8.36q-1.2,4.57-2.48,8.47t-2.4,6.75Z"/></clipPath></defs><title>Asset 2</title><g class="0a17c987-738f-4d1d-a34c-079c9a1dc1a4"><g id="487731b0-9a04-4e19-ad6f-212c95035052" data-name="Layer 2"><g id="a15649db-079c-431c-b0d1-1cd6b0cee784" data-name="logotipo"><g class="0819d67b-12d9-48f1-9d8f-b6b17023487f"><g class="adcdbcf1-a591-464f-8181-1478fc77afc7"><circle class="05ed0830-7103-42c8-a1a4-f02e9b74cd63" cx="618.67" cy="72" r="72"/></g><g class="adcdbcf1-a591-464f-8181-1478fc77afc7"><circle class="dc3038e0-2a96-4c7a-8d0d-d553f1d69974" cx="509.33" cy="72" r="72"/></g><g class="adcdbcf1-a591-464f-8181-1478fc77afc7"><circle class="0af72b8b-9632-4341-9dab-ac65262aaf6c" cx="400" cy="72" r="72"/></g><g class="adcdbcf1-a591-464f-8181-1478fc77afc7"><circle class="05ed0830-7103-42c8-a1a4-f02e9b74cd63" cx="290.67" cy="72" r="72"/></g><g class="adcdbcf1-a591-464f-8181-1478fc77afc7"><circle class="dc3038e0-2a96-4c7a-8d0d-d553f1d69974" cx="181.33" cy="72" r="72"/></g><g class="adcdbcf1-a591-464f-8181-1478fc77afc7"><circle class="dc3038e0-2a96-4c7a-8d0d-d553f1d69974" cx="728" cy="72" r="72"/></g><g class="adcdbcf1-a591-464f-8181-1478fc77afc7"><circle class="0af72b8b-9632-4341-9dab-ac65262aaf6c" cx="72" cy="72" r="72"/></g><g class="adcdbcf1-a591-464f-8181-1478fc77afc7"><circle class="05ed0830-7103-42c8-a1a4-f02e9b74cd63" cx="618.67" cy="144" r="72"/></g><g class="adcdbcf1-a591-464f-8181-1478fc77afc7"><circle class="dc3038e0-2a96-4c7a-8d0d-d553f1d69974" cx="509.33" cy="144" r="72"/></g><g class="adcdbcf1-a591-464f-8181-1478fc77afc7"><circle class="0af72b8b-9632-4341-9dab-ac65262aaf6c" cx="400" cy="144" r="72"/></g><g class="adcdbcf1-a591-464f-8181-1478fc77afc7"><circle class="05ed0830-7103-42c8-a1a4-f02e9b74cd63" cx="290.67" cy="144" r="72"/></g><g class="adcdbcf1-a591-464f-8181-1478fc77afc7"><circle class="dc3038e0-2a96-4c7a-8d0d-d553f1d69974" cx="181.33" cy="144" r="72"/></g><g class="adcdbcf1-a591-464f-8181-1478fc77afc7"><circle class="dc3038e0-2a96-4c7a-8d0d-d553f1d69974" cx="728" cy="144" r="72"/></g><g class="adcdbcf1-a591-464f-8181-1478fc77afc7"><circle class="0af72b8b-9632-4341-9dab-ac65262aaf6c" cx="72" cy="144" r="72"/></g></g><path d="M504.73,181.78a.38.38,0,0,1-.28.15c-.15,0-.38-.17-.68-.52a7.68,7.68,0,0,0-1.35-1.11,10.87,10.87,0,0,0-2.29-1.11,10.35,10.35,0,0,0-3.5-.51,10.21,10.21,0,0,0-3.81.66A8.37,8.37,0,0,0,490,181.1a7.53,7.53,0,0,0-1.71,2.55,7.86,7.86,0,0,0-.59,3,6.54,6.54,0,0,0,.79,3.37,7.36,7.36,0,0,0,2.06,2.28,12,12,0,0,0,2.92,1.53c1.1.41,2.22.8,3.35,1.18s2.25.77,3.35,1.19a11.56,11.56,0,0,1,2.93,1.58,7.6,7.6,0,0,1,2.06,2.38,7.24,7.24,0,0,1,.79,3.54,10.82,10.82,0,0,1-.73,4,9.38,9.38,0,0,1-2.1,3.25,9.93,9.93,0,0,1-3.37,2.19,12.26,12.26,0,0,1-4.55.8,14.56,14.56,0,0,1-3.18-.32,10.69,10.69,0,0,1-4.7-2.32,17,17,0,0,1-1.87-1.91l.1-.1.12-.11a.28.28,0,0,1,.18,0c.1,0,.24.1.44.31s.45.48.78.8.74.67,1.2,1a9.92,9.92,0,0,0,1.7,1,10.6,10.6,0,0,0,2.29.8,12.43,12.43,0,0,0,2.94.32,11.23,11.23,0,0,0,4.31-.78,9.4,9.4,0,0,0,3.2-2.09,8.73,8.73,0,0,0,2-3.06,10,10,0,0,0,.69-3.72,7.26,7.26,0,0,0-.51-2.85,6.67,6.67,0,0,0-1.39-2.07,8.79,8.79,0,0,0-2-1.47,19.5,19.5,0,0,0-2.49-1.1c-.88-.33-1.78-.62-2.7-.9s-1.81-.58-2.7-.91a21,21,0,0,1-2.48-1.14,8.09,8.09,0,0,1-2-1.55,6.62,6.62,0,0,1-1.39-2.18,7.91,7.91,0,0,1-.51-3,8.53,8.53,0,0,1,.62-3.21,8.06,8.06,0,0,1,1.83-2.72,8.81,8.81,0,0,1,3-1.87,10.83,10.83,0,0,1,4-.7,11.56,11.56,0,0,1,4.51.82,11.1,11.1,0,0,1,3.69,2.63Z"/><path d="M559.48,178.58v.55H546.33v34.45h-.6V179.13H532.48v-.55Z"/><path d="M616.08,196.08a22,22,0,0,1-1.19,7.45,16.14,16.14,0,0,1-3.33,5.61,14.47,14.47,0,0,1-5.11,3.55,17.95,17.95,0,0,1-13.11,0,14.43,14.43,0,0,1-5.1-3.55,16.3,16.3,0,0,1-3.33-5.61,24.08,24.08,0,0,1,0-14.89,16.44,16.44,0,0,1,3.33-5.64,14.35,14.35,0,0,1,5.1-3.57,16.51,16.51,0,0,1,6.54-1.25,17,17,0,0,1,6.57,1.23,14.39,14.39,0,0,1,5.11,3.57,16.33,16.33,0,0,1,3.33,5.63A22.09,22.09,0,0,1,616.08,196.08Zm-.65,0a21.81,21.81,0,0,0-1.14-7.3,15.84,15.84,0,0,0-3.19-5.48,13.73,13.73,0,0,0-4.91-3.44,16.34,16.34,0,0,0-6.31-1.18,16.11,16.11,0,0,0-6.25,1.18,14,14,0,0,0-4.92,3.44,16.05,16.05,0,0,0-3.22,5.48,23.49,23.49,0,0,0,0,14.58,15.82,15.82,0,0,0,3.22,5.45,13.79,13.79,0,0,0,4.92,3.43,16.11,16.11,0,0,0,6.25,1.19,16.34,16.34,0,0,0,6.31-1.19,13.58,13.58,0,0,0,4.91-3.43,15.61,15.61,0,0,0,3.19-5.45A21.69,21.69,0,0,0,615.43,196.08Z"/><path d="M650.43,196.68v16.9h-.6v-35h8.1q5.48,0,8.41,2.12t2.94,6.63a8.71,8.71,0,0,1-.83,3.83,8.24,8.24,0,0,1-2.32,2.92,11.21,11.21,0,0,1-3.59,1.87,16.19,16.19,0,0,1-4.61.73,1.7,1.7,0,0,1,.45.26,4.8,4.8,0,0,1,.4.39l13.65,16.25H672a1.34,1.34,0,0,1-.33,0,.89.89,0,0,1-.32-.26l-13.1-15.7a2.7,2.7,0,0,0-.44-.45,1.64,1.64,0,0,0-.48-.28,2.51,2.51,0,0,0-.61-.13,7.06,7.06,0,0,0-.87,0Zm0-.5h7.05a16.16,16.16,0,0,0,4.63-.62,10.42,10.42,0,0,0,3.53-1.75,7.74,7.74,0,0,0,2.25-2.77,8.53,8.53,0,0,0,.79-3.71q0-4.28-2.78-6.27t-8-2h-7.5Z"/><path d="M723.28,178.58v.55H703.43v16.4h16.85v.55H703.43V213h19.9l-.05.55H702.83v-35Z"/></g></g></g></svg>