<svg xmlns="http://www.w3.org/2000/svg" viewBox="0 0 178.14 38.87"><defs><style>.\33 c480564-7e26-4c75-8c1c-c03b3ea85e91{fill:#fff;}</style></defs><title>Asset 2</title><g id="b2aae7e1-30b8-40f5-b78f-4217e3e4517d" data-name="Layer 2"><g id="7da22d89-4545-4eac-8856-1662e328bacb" data-name="vector"><path class="3c480564-7e26-4c75-8c1c-c03b3ea85e91" d="M176.94,4.25a.35.35,0,0,1-.11-.09.2.2,0,0,1,0-.13.32.32,0,0,1,.09-.2,3.06,3.06,0,0,0,.18-.29,2.26,2.26,0,0,0,.19-.41,1.7,1.7,0,0,0,.09-.59,1.72,1.72,0,0,0-.09-.58,1.27,1.27,0,0,0-.24-.41,1.1,1.1,0,0,0-.35-.26,1.27,1.27,0,0,0-.44-.08.82.82,0,0,0-.5.15,1.27,1.27,0,0,0-.33.39,2.54,2.54,0,0,0-.25.55c-.06.2-.14.41-.21.63a5.5,5.5,0,0,1-.25.63,2.2,2.2,0,0,1-.34.55,1.55,1.55,0,0,1-1.27.53,2.54,2.54,0,0,1-.88-.15,2.09,2.09,0,0,1-.72-.47,2.35,2.35,0,0,1-.48-.76,2.89,2.89,0,0,1-.17-1A3.06,3.06,0,0,1,171.07,1a3,3,0,0,1,.68-1l.46.28a.28.28,0,0,1,.09.1.19.19,0,0,1,0,.12.42.42,0,0,1-.11.25,2.56,2.56,0,0,0-.25.33,3.19,3.19,0,0,0-.25.49,2.08,2.08,0,0,0-.11.71,1.7,1.7,0,0,0,.1.61,1.38,1.38,0,0,0,.26.46,1.19,1.19,0,0,0,.42.28,1.29,1.29,0,0,0,.53.11.86.86,0,0,0,.53-.15,1.2,1.2,0,0,0,.35-.39,3.13,3.13,0,0,0,.24-.55c.06-.2.13-.41.2-.63s.15-.42.24-.63a2,2,0,0,1,.35-.55,1.6,1.6,0,0,1,.53-.38,2,2,0,0,1,1.54,0,2.17,2.17,0,0,1,.63.42,2.14,2.14,0,0,1,.44.7,2.52,2.52,0,0,1,.16.95A3,3,0,0,1,178,3.62a2.48,2.48,0,0,1-.55.87Z"/><path class="3c480564-7e26-4c75-8c1c-c03b3ea85e91" d="M178.06,10.76h-.81V8.44H170.9v-1h6.35V5.15h.81Z"/><path class="3c480564-7e26-4c75-8c1c-c03b3ea85e91" d="M174.48,18a4.14,4.14,0,0,1-1.48-.26,3.44,3.44,0,0,1-1.16-.72,3.24,3.24,0,0,1-.75-1.12,4,4,0,0,1,0-2.88A3.21,3.21,0,0,1,173,11.13a4.14,4.14,0,0,1,1.48-.25,4.09,4.09,0,0,1,1.47.25A3.27,3.27,0,0,1,177.87,13a4,4,0,0,1,0,2.88,3.13,3.13,0,0,1-.76,1.12,3.35,3.35,0,0,1-1.16.72A4.09,4.09,0,0,1,174.48,18Zm0-1a3.61,3.61,0,0,0,1.18-.18,2.5,2.5,0,0,0,.89-.51,2.27,2.27,0,0,0,.56-.8,3,3,0,0,0,0-2.09,2.22,2.22,0,0,0-.56-.81,2.5,2.5,0,0,0-.89-.51,3.61,3.61,0,0,0-1.18-.18,3.67,3.67,0,0,0-1.19.18,2.55,2.55,0,0,0-.88.51,2.22,2.22,0,0,0-.56.81,3,3,0,0,0,0,2.09,2.27,2.27,0,0,0,.56.8,2.55,2.55,0,0,0,.88.51A3.67,3.67,0,0,0,174.48,17Z"/><path class="3c480564-7e26-4c75-8c1c-c03b3ea85e91" d="M173.89,20.33h-3v-1h7.16v2a4.11,4.11,0,0,1-.14,1.18,2.32,2.32,0,0,1-.39.82,1.68,1.68,0,0,1-.63.47,2,2,0,0,1-.82.16,2,2,0,0,1-.71-.12,2,2,0,0,1-.6-.35,2.17,2.17,0,0,1-.44-.55,2.48,2.48,0,0,1-.28-.75.94.94,0,0,1-.31.32l-2.84,2.09V23.8a.43.43,0,0,1,.2-.39l2.56-1.86a.42.42,0,0,0,.17-.18.61.61,0,0,0,.06-.3Zm.7,0v1a2.84,2.84,0,0,0,.1.75,1.74,1.74,0,0,0,.29.54,1.28,1.28,0,0,0,.45.32,1.36,1.36,0,0,0,.58.11,1.15,1.15,0,0,0,1-.42,2,2,0,0,0,.33-1.26V20.33Z"/><path class="3c480564-7e26-4c75-8c1c-c03b3ea85e91" d="M178.06,30.13h-.79V26.68h-2.38v2.79h-.76V26.68h-2.44v3.45h-.79V25.71h7.16Z"/><path class="3c480564-7e26-4c75-8c1c-c03b3ea85e91" d="M21.26,22.11a1.36,1.36,0,0,1,.48.09,1.44,1.44,0,0,1,.46.31l2.68,2.82a11,11,0,0,1-4.41,3.47A15.45,15.45,0,0,1,14.2,30a14.82,14.82,0,0,1-5.95-1.13,12.82,12.82,0,0,1-4.46-3.12A13.63,13.63,0,0,1,1,21a17.48,17.48,0,0,1-1-5.93,15.58,15.58,0,0,1,1.12-6A14,14,0,0,1,4.25,4.37,14.19,14.19,0,0,1,9.06,1.29,16.86,16.86,0,0,1,15.24.19a16.05,16.05,0,0,1,3.09.29,15.58,15.58,0,0,1,2.71.8A13.07,13.07,0,0,1,23.36,2.5a11.68,11.68,0,0,1,1.88,1.57L23,7.13a2.79,2.79,0,0,1-.52.51,1.31,1.31,0,0,1-.84.23,1.45,1.45,0,0,1-.68-.16,5.51,5.51,0,0,1-.68-.39l-.79-.5a6.93,6.93,0,0,0-1-.5,8.93,8.93,0,0,0-1.38-.39,10,10,0,0,0-1.85-.16,8.49,8.49,0,0,0-3.36.65A7.6,7.6,0,0,0,9.23,8.28a8.72,8.72,0,0,0-1.7,2.93,11.45,11.45,0,0,0-.61,3.86,11.89,11.89,0,0,0,.61,4A8.76,8.76,0,0,0,9.19,22a7,7,0,0,0,2.45,1.81,7.2,7.2,0,0,0,3,.62,14.44,14.44,0,0,0,1.68-.09A6.63,6.63,0,0,0,17.73,24,5.79,5.79,0,0,0,19,23.44a8,8,0,0,0,1.19-.87,2.55,2.55,0,0,1,.52-.33A1.48,1.48,0,0,1,21.26,22.11Z"/><path class="3c480564-7e26-4c75-8c1c-c03b3ea85e91" d="M48.88,29.65H43.64a2.37,2.37,0,0,1-1.45-.41,2.11,2.11,0,0,1-.79-1l-1.72-5.08H28.6l-1.72,5.08a2.17,2.17,0,0,1-.78,1,2.25,2.25,0,0,1-1.42.45H19.4L30.68.51H37.6ZM30.16,18.51h8l-2.68-8c-.17-.5-.38-1.1-.61-1.79s-.46-1.43-.69-2.23c-.21.82-.43,1.57-.66,2.26s-.44,1.3-.64,1.8Z"/><path class="3c480564-7e26-4c75-8c1c-c03b3ea85e91" d="M51.8,24.25H62.6v5.4H45V.51H51.8Z"/><path class="3c480564-7e26-4c75-8c1c-c03b3ea85e91" d="M86.76,15.07A15.57,15.57,0,0,1,85.67,21a13.9,13.9,0,0,1-7.84,7.88,17.4,17.4,0,0,1-12.39,0A13.91,13.91,0,0,1,57.57,21a15.57,15.57,0,0,1-1.09-5.88,15.64,15.64,0,0,1,1.09-5.88,14.09,14.09,0,0,1,3.08-4.72,14.29,14.29,0,0,1,4.79-3.14,17.33,17.33,0,0,1,12.39,0A14.38,14.38,0,0,1,82.6,4.49a14.21,14.21,0,0,1,3.07,4.72A15.58,15.58,0,0,1,86.76,15.07Zm-6.92,0a12.73,12.73,0,0,0-.56-3.89,8.22,8.22,0,0,0-1.61-2.93A7,7,0,0,0,75.1,6.41a9,9,0,0,0-3.46-.64,9.09,9.09,0,0,0-3.49.64,7,7,0,0,0-2.58,1.84A8.22,8.22,0,0,0,64,11.18a12.73,12.73,0,0,0-.56,3.89A12.73,12.73,0,0,0,64,19a8.13,8.13,0,0,0,1.61,2.93,6.83,6.83,0,0,0,2.58,1.83,9.09,9.09,0,0,0,3.49.63,9,9,0,0,0,3.46-.63,6.87,6.87,0,0,0,2.57-1.83A8.13,8.13,0,0,0,79.28,19,12.73,12.73,0,0,0,79.84,15.07Z"/><path class="3c480564-7e26-4c75-8c1c-c03b3ea85e91" d="M95.92,24.31a6.19,6.19,0,0,0,2.43-.45,4.91,4.91,0,0,0,1.81-1.29,5.72,5.72,0,0,0,1.13-2.05,8.91,8.91,0,0,0,.39-2.75V.51h6.76V17.77a13.45,13.45,0,0,1-.87,4.92,11,11,0,0,1-2.49,3.86,11.21,11.21,0,0,1-3.94,2.52,15.65,15.65,0,0,1-10.46,0,11.21,11.21,0,0,1-3.94-2.52,10.82,10.82,0,0,1-2.48-3.86,13.67,13.67,0,0,1-.86-4.92V.51h6.76V17.75a8.91,8.91,0,0,0,.39,2.75,5.77,5.77,0,0,0,1.13,2.06,4.83,4.83,0,0,0,1.81,1.3A6.19,6.19,0,0,0,95.92,24.31Z"/><path class="3c480564-7e26-4c75-8c1c-c03b3ea85e91" d="M125.4.51v5.2h-12v6.8h9.16v5h-9.16v6.94h12v5.2H106.64V.51Z"/><path class="3c480564-7e26-4c75-8c1c-c03b3ea85e91" d="M129.8,18.87V29.65H123V.51h9.48a19.58,19.58,0,0,1,5.39.65A10.25,10.25,0,0,1,141.55,3a7,7,0,0,1,2,2.74,9,9,0,0,1,.64,3.44,9.33,9.33,0,0,1-.38,2.68,8,8,0,0,1-1.13,2.33,8.53,8.53,0,0,1-1.84,1.91,9.77,9.77,0,0,1-2.51,1.38,7,7,0,0,1,1.27.84,5.37,5.37,0,0,1,1,1.22l6.2,10.14h-6.12a2.58,2.58,0,0,1-2.44-1.28l-4.84-8.46a2,2,0,0,0-.75-.8,2.52,2.52,0,0,0-1.21-.24Zm0-4.66h2.72a6.81,6.81,0,0,0,2.35-.35,4.15,4.15,0,0,0,1.59-1,3.7,3.7,0,0,0,.9-1.45,5.74,5.74,0,0,0,.28-1.79,3.76,3.76,0,0,0-1.25-3,5.81,5.81,0,0,0-3.87-1.08H129.8Z"/><path class="3c480564-7e26-4c75-8c1c-c03b3ea85e91" d="M170.56,29.65h-5.24a2.37,2.37,0,0,1-1.45-.41,2.05,2.05,0,0,1-.79-1l-1.72-5.08H150.28l-1.72,5.08a2.32,2.32,0,0,1-2.2,1.46h-5.28L152.36.51h6.92ZM151.84,18.51h8l-2.68-8c-.18-.5-.38-1.1-.61-1.79s-.47-1.43-.69-2.23c-.22.82-.44,1.57-.66,2.26s-.44,1.3-.64,1.8Z"/><path class="3c480564-7e26-4c75-8c1c-c03b3ea85e91" d="M115.32,38.78h-.09s0,0-.06-.05l-1-2.34H110.5l-1,2.34s0,.05-.07.05h-.08l2.92-7h.1Zm-4.78-2.49h3.61l-1.72-4.14a.42.42,0,0,1,0-.1,1,1,0,0,1,0-.1,1,1,0,0,1,0,.1.42.42,0,0,1,0,.1Z"/><path class="3c480564-7e26-4c75-8c1c-c03b3ea85e91" d="M117.24,38.67h3.57v.11h-3.69v-7h.12Z"/><path class="3c480564-7e26-4c75-8c1c-c03b3ea85e91" d="M122.83,38.67h3.57v.11h-3.69v-7h.12Z"/><path class="3c480564-7e26-4c75-8c1c-c03b3ea85e91" d="M133.21,38.76a2.34,2.34,0,0,0,1-.2A2.22,2.22,0,0,0,135,38a2.38,2.38,0,0,0,.47-.82,3,3,0,0,0,.17-1v-4.4h.12v4.4a3,3,0,0,1-.18,1,2.42,2.42,0,0,1-.5.85,2.32,2.32,0,0,1-.8.58,2.73,2.73,0,0,1-2.1,0,2.23,2.23,0,0,1-.8-.58,2.6,2.6,0,0,1-.51-.85,3.3,3.3,0,0,1-.17-1v-4.4h.12v4.39a3,3,0,0,0,.16,1,2.44,2.44,0,0,0,.48.83,2.22,2.22,0,0,0,.76.55A2.31,2.31,0,0,0,133.21,38.76Z"/><path class="3c480564-7e26-4c75-8c1c-c03b3ea85e91" d="M141.13,31.82l5,6.75V31.78h.1v7h0a.09.09,0,0,1-.06,0l-5-6.78a.15.15,0,0,1,0,.07v6.74H141v-7h0A.1.1,0,0,1,141.13,31.82Z"/><path class="3c480564-7e26-4c75-8c1c-c03b3ea85e91" d="M153.17,31.78v.11h-4v3.28h3.37v.11H149.2v3.39h4v.11h-4.09v-7Z"/><path class="3c480564-7e26-4c75-8c1c-c03b3ea85e91" d="M159.67,31.78v.11h-4v3.28h3.37v.11H155.7v3.39h4v.11h-4.09v-7Z"/><path class="3c480564-7e26-4c75-8c1c-c03b3ea85e91" d="M167.82,35.28a4.21,4.21,0,0,1-.24,1.48,3.16,3.16,0,0,1-.66,1.1,2.92,2.92,0,0,1-1,.69,3.43,3.43,0,0,1-1.31.23h-2.5v-7h2.5a3.43,3.43,0,0,1,1.31.24,2.77,2.77,0,0,1,1,.68,3.26,3.26,0,0,1,.66,1.1A4.29,4.29,0,0,1,167.82,35.28Zm-.13,0a4.26,4.26,0,0,0-.23-1.44,2.86,2.86,0,0,0-.64-1.07,2.65,2.65,0,0,0-1-.66,3.4,3.4,0,0,0-1.26-.23H162.2v6.8h2.38a3.4,3.4,0,0,0,1.26-.22,2.65,2.65,0,0,0,1-.66,2.94,2.94,0,0,0,.64-1.07A4.28,4.28,0,0,0,167.69,35.28Z"/><path class="3c480564-7e26-4c75-8c1c-c03b3ea85e91" d="M170.24,38.54a.33.33,0,0,1,.09-.23.31.31,0,0,1,.46,0,.3.3,0,0,1,.1.23.29.29,0,0,1-.1.23.32.32,0,0,1-.55-.23Zm.41-6.76v3.67c0,.13,0,.27,0,.43s0,.33,0,.52h-.08c0-.19,0-.37,0-.52v-.43c0-.14,0-.27,0-.39V31.78Z"/></g></g></svg>